<svg xmlns="http://www.w3.org/2000/svg" viewBox="0 0 318.71 72.43"><g id="Layer_2" data-name="Layer 2"><g id="Layer_1-2" data-name="Layer 1"><g id="NoInternet_1" data-name="NoInternet 1"><g id="NoInternet_1-2" data-name="NoInternet 1"><path d="M235.64,24.36A11.86,11.86,0,0,0,223.78,12.5H100A11.86,11.86,0,0,0,88.11,24.36V48.07A11.86,11.86,0,0,0,100,59.93H223.78a11.87,11.87,0,0,0,11.86-11.86Z" fill="#303030" stroke="#303030" stroke-linecap="round" stroke-linejoin="round" stroke-width="25" fill-rule="evenodd"/><path d="M6.13,47.1a6,6,0,0,1,4.36,1.83,6,6,0,0,1,1.84,4.44,6.13,6.13,0,0,1-1.77,4.39,5.8,5.8,0,0,1-4.38,1.86,5.91,5.91,0,0,1-4.37-1.83,6.35,6.35,0,0,1,0-8.85A5.82,5.82,0,0,1,6.13,47.1Zm0,9.08A2.8,2.8,0,0,0,8,55.43a2.37,2.37,0,0,0,.88-1.91,2.77,2.77,0,0,0-2.78-2.91,2.42,2.42,0,0,0-1.86.89,2.8,2.8,0,0,0-.78,1.84,2.93,2.93,0,0,0,.78,1.92,2.44,2.44,0,0,0,1.91.92Z" fill="gray"/><path d="M34.1,18a4.81,4.81,0,0,1-1.58,3.71,5.48,5.48,0,0,1-3.81,1.44A4.86,4.86,0,0,1,25,21.5a5.32,5.32,0,0,1-1.51-3.73A5.12,5.12,0,0,1,25,14.06a5,5,0,0,1,3.67-1.56A5.45,5.45,0,0,1,32.47,14a5.11,5.11,0,0,1,1.63,4Zm-2.2-.29a3,3,0,0,0-.81-2.1,2.81,2.81,0,0,0-2.16-.88,3,3,0,0,0-2.29.89,3,3,0,0,0-.86,2.16,3.16,3.16,0,0,0,.82,2.17,2.86,2.86,0,0,0,2.28.93,2.72,2.72,0,0,0,2.23-1A3.37,3.37,0,0,0,31.9,17.68Z" fill="gray"/><rect x="56.01" y="33.11" width="5.86" height="6.01" fill="gray"/><path d="M94.56,31.89a20,20,0,0,1,3.35-7.45,36.4,36.4,0,0,1,4.55-5.6,3.37,3.37,0,0,0,1.2-2.3c0-.9-.6-1.65-2-1.85-4.25-.65-7.85,6-9.9,9.1-3.05,4.55-3.4,8.4-3.7,13.25s1.15,9.35,2.65,13.7c1.35,3.8,5.65,8.85,9.85,9.15,1.8.15,3.6-1.4,2.65-3.4-.85-1.7-4.25-3.55-5.3-5.25a21.5,21.5,0,0,1-2.8-6.4,32.31,32.31,0,0,1-1-7.8,30.18,30.18,0,0,1,.4-5.15Z" fill="gray"/><path d="M121.26,45.84c2.75-1.35,5.4-2.9,8.2-4.2,1.75-.8,3.85-1.1,4.95-2.8a4.09,4.09,0,0,0,.6-2.25,4,4,0,0,0-.95-2.7c-1.15-1.15-3.3-1.8-4.8-2.5-2.2-.95-4.2-2.15-6.35-3.15a79.76,79.76,0,0,1-8.2-4.3c-1.35-.85-3-2.2-4.6-2.3s-2.75,1.7-2.3,3.35a6.85,6.85,0,0,0,3.25,3.85c3.15,2.05,8.5,4.1,11.8,5.85,1.15.6,2.9,1.1,3.75,2a64.42,64.42,0,0,1-6,3.35c-1.65,1-3.25,1.8-5,2.75-1.9,1-8.4,4.4-7.85,7.1a1.82,1.82,0,0,0,2,1.55C113.21,51.44,120.06,46.44,121.26,45.84Z" fill="gray"/><path d="M186.76,58.57a9,9,0,0,1-5.69-2,3,3,0,0,0-1-.61,8.31,8.31,0,0,0-2.59,1.28,7.3,7.3,0,0,1-3.61,1.28,6.41,6.41,0,0,1-3.46-1.33A7.42,7.42,0,0,0,168,55.91a2.72,2.72,0,0,0-1.2.71,7.75,7.75,0,0,1-5,2,7.5,7.5,0,0,1-4-1.32l-1.34-.85a2.43,2.43,0,0,0-.8-.39,8,8,0,0,0-2.49,1.28,7,7,0,0,1-3.57,1.28,6.11,6.11,0,0,1-3.45-1.36,7,7,0,0,0-2.43-1.35,5.76,5.76,0,0,0-2.24,1.35,7.48,7.48,0,0,1-4.77,1.36v-3a6.29,6.29,0,0,0,4-1.36,5.1,5.1,0,0,1,2.89-1.35,6.18,6.18,0,0,1,3.3,1.33,6.22,6.22,0,0,0,2.68,1.33,6.36,6.36,0,0,0,2.89-1.31,6.3,6.3,0,0,1,3.12-1.3,6.12,6.12,0,0,1,3.13,1.38,6.14,6.14,0,0,0,3,1.38,5.92,5.92,0,0,0,3-1.41,6,6,0,0,1,3.22-1.4,5.89,5.89,0,0,1,3.17,1.29,5.9,5.9,0,0,0,2.79,1.3,6.45,6.45,0,0,0,2.85-1.27,6.34,6.34,0,0,1,3.13-1.27A5.45,5.45,0,0,1,183,54.24a5.62,5.62,0,0,0,3.77,1.28v3Z" fill="gray"/><path d="M202.35,27.24c-2.8,1.35-5.4,2.9-8.25,4.2-1.75.8-3.85,1.05-4.95,2.8a4.21,4.21,0,0,0-.6,2.25,3.75,3.75,0,0,0,.95,2.65c1.15,1.2,3.3,1.85,4.8,2.55,2.2,1,4.2,2.15,6.35,3.15a79.76,79.76,0,0,1,8.2,4.3c1.4.85,3,2.2,4.6,2.3s2.75-1.7,2.3-3.35a6.85,6.85,0,0,0-3.25-3.85c-3.15-2.05-8.5-4.1-11.8-5.85-1.15-.6-2.9-1.1-3.75-2C198.8,35,201,34.19,203,33c1.65-1,3.25-1.8,5-2.7,1.9-1,8.4-4.4,7.85-7.1a1.82,1.82,0,0,0-2-1.55c-3.5,0-10.35,5-11.5,5.6Z" fill="gray"/><path d="M229.15,42.69a20.15,20.15,0,0,1-3.4,7.45,42.39,42.39,0,0,1-4.5,5.6,3.37,3.37,0,0,0-1.2,2.3c0,.9.6,1.65,2,1.85,4.25.6,7.85-6,9.85-9.1,3-4.6,3.4-8.4,3.7-13.25.3-4.7-1.1-9.35-2.65-13.7C231.6,20,227.3,15,223.1,14.64c-1.8-.15-3.55,1.45-2.6,3.45.8,1.7,4.2,3.55,5.25,5.25a20,20,0,0,1,2.8,6.35,34.8,34.8,0,0,1,.6,13Z" fill="gray"/><rect x="262.4" y="33.11" width="5.86" height="6.01" fill="gray"/><path d="M290.5,18a4.78,4.78,0,0,1-1.59,3.71,5.48,5.48,0,0,1-3.81,1.44,4.84,4.84,0,0,1-3.68-1.62,5.33,5.33,0,0,1-1.52-3.73,5.09,5.09,0,0,1,1.54-3.71,5,5,0,0,1,3.66-1.56A5.43,5.43,0,0,1,288.86,14a5.12,5.12,0,0,1,1.64,4Zm-2.2-.29a2.94,2.94,0,0,0-.82-2.1,2.78,2.78,0,0,0-2.16-.88,3,3,0,0,0-2.28.89,3,3,0,0,0-.87,2.16,3.2,3.2,0,0,0,.82,2.17,2.89,2.89,0,0,0,2.28.93,2.74,2.74,0,0,0,2.24-1A3.37,3.37,0,0,0,288.3,17.68Z" fill="gray"/><path d="M312.51,47.1a6.27,6.27,0,0,1,6.2,6.27,6.13,6.13,0,0,1-1.77,4.39,5.8,5.8,0,0,1-4.38,1.86,5.92,5.92,0,0,1-4.37-1.83,6.36,6.36,0,0,1,0-8.85,5.8,5.8,0,0,1,4.34-1.84Zm0,9.08a2.84,2.84,0,0,0,1.86-.75,2.4,2.4,0,0,0,.88-1.91,2.76,2.76,0,0,0-.84-2.13,2.8,2.8,0,0,0-2-.78,2.4,2.4,0,0,0-1.85.89,2.8,2.8,0,0,0-.78,1.84,2.93,2.93,0,0,0,.78,1.92,2.41,2.41,0,0,0,1.9.92Z" fill="gray"/></g></g></g></g></svg>