<svg xmlns="http://www.w3.org/2000/svg" viewBox="0 0 296.88 70.3"><g id="Layer_2" data-name="Layer 2"><g id="Layer_1-2" data-name="Layer 1"><g id="NoInternet_3" data-name="NoInternet 3"><path d="M248.55,23.82A11.33,11.33,0,0,0,237.22,12.5H65.11A11.32,11.32,0,0,0,53.79,23.82V46.47A11.33,11.33,0,0,0,65.11,57.8H237.22a11.34,11.34,0,0,0,11.33-11.33Z" fill="#303030" stroke="#303030" stroke-linecap="round" stroke-linejoin="round" stroke-width="25" fill-rule="evenodd"/><path d="M6.13,45a6,6,0,0,1,4.36,1.83,6,6,0,0,1,1.84,4.44,6.13,6.13,0,0,1-1.77,4.39,5.8,5.8,0,0,1-4.38,1.86,5.91,5.91,0,0,1-4.37-1.83,6.35,6.35,0,0,1,0-8.85A5.82,5.82,0,0,1,6.13,45Zm0,9.08A2.8,2.8,0,0,0,8,53.3a2.37,2.37,0,0,0,.88-1.91,2.77,2.77,0,0,0-2.78-2.91,2.41,2.41,0,0,0-1.86.89,2.8,2.8,0,0,0-.78,1.85,2.92,2.92,0,0,0,.78,1.91,2.43,2.43,0,0,0,1.91.92Z" fill="gray"/><path d="M30.21,11a4.27,4.27,0,0,1,0,6.25,4.25,4.25,0,0,1-6.25,0A4.25,4.25,0,0,1,24,11a4.25,4.25,0,0,1,6.25,0Zm-1,5.27A2.89,2.89,0,0,0,30,14.11,2.9,2.9,0,0,0,29.23,12a2.91,2.91,0,0,0-2.15-.78,2.91,2.91,0,0,0-2.15.78,2.9,2.9,0,0,0-.78,2.15,3,3,0,0,0,5.08,2.14Z" fill="gray"/><path d="M59.09,29.31A11.52,11.52,0,0,0,54,34.56a4.84,4.84,0,0,0-.35,1.95,2.9,2.9,0,0,0,2,3.05,2.59,2.59,0,0,0,2.1-.15c.7-.35.7-.65.8-1.4.15-1.1.8-2.55,2-2.8a3.09,3.09,0,0,1,3.05,1.2,7.47,7.47,0,0,0,3.25,2.3,9,9,0,0,0,3.3.55,10.73,10.73,0,0,0,6-1.8c2-1.45,4.2-4.8,3.55-7.45a3.59,3.59,0,0,0-2.35-2.5c-1-.15-2.75-.2-3,1.15-.1.65.4,1.1.25,1.8A4,4,0,0,1,73.74,32a4.68,4.68,0,0,1-3.7,1.4c-3-.4-3.8-3.9-6.35-4.85a6.22,6.22,0,0,0-4.6.75Z" fill="gray"/><path d="M89.84,29.76a20,20,0,0,1,3.35-7.45,36.4,36.4,0,0,1,4.55-5.6,3.37,3.37,0,0,0,1.2-2.3c0-.9-.6-1.65-2-1.85-4.25-.65-7.85,6-9.9,9.1-3.05,4.55-3.4,8.4-3.7,13.25s1.15,9.35,2.65,13.7c1.35,3.8,5.65,8.85,9.85,9.15,1.8.15,3.6-1.4,2.65-3.4-.85-1.7-4.25-3.55-5.3-5.25a21.5,21.5,0,0,1-2.8-6.4,32.31,32.31,0,0,1-1-7.8,30.18,30.18,0,0,1,.4-5.15Z" fill="gray"/><path d="M116.54,43.71c2.75-1.35,5.4-2.9,8.2-4.2,1.75-.8,3.85-1.1,5-2.8a4.09,4.09,0,0,0,.6-2.25,4,4,0,0,0-.95-2.7c-1.15-1.15-3.3-1.8-4.8-2.5-2.2-1-4.2-2.15-6.35-3.15a79.76,79.76,0,0,1-8.2-4.3c-1.35-.85-3-2.2-4.6-2.3s-2.75,1.7-2.3,3.35a6.85,6.85,0,0,0,3.25,3.85c3.15,2.05,8.5,4.1,11.8,5.85,1.15.6,2.9,1.1,3.75,2a64.42,64.42,0,0,1-6,3.35c-1.65,1-3.25,1.8-5,2.75-1.9,1-8.4,4.4-7.85,7.1a1.82,1.82,0,0,0,2,1.55c3.5,0,10.35-5,11.55-5.6Z" fill="gray"/><path d="M152.89,45.91c-1.3.05-2.65.05-3.95.15s-2.65.2-4.05.35-2.9.25-4.35.5c-2.15.35-4.85.5-6.4,2.25-.75.8-.45,1.6.3,2.3,1.15,1.15,2.15,1.2,3.75,1,2.15-.2,4.25-.25,6.45-.35,2.8-.15,5.65-.45,8.45-.7s5.4-.45,8-.65a34,34,0,0,0,5.05-.6,2.81,2.81,0,0,0,2.1-2.4,1.54,1.54,0,0,0-.85-1.35,10,10,0,0,0-2.15-1.15,9.38,9.38,0,0,0-2.9-.05c-1.9.1-3.8.3-5.65.4-1.3.1-2.6.25-3.85.3v-.05Z" fill="gray"/><path d="M185.24,25.11c-2.8,1.35-5.4,2.9-8.25,4.2-1.75.8-3.85,1.05-5,2.8a4.21,4.21,0,0,0-.6,2.25,3.75,3.75,0,0,0,.95,2.65c1.15,1.2,3.3,1.85,4.8,2.55,2.2.95,4.2,2.15,6.35,3.15a79.76,79.76,0,0,1,8.2,4.3c1.4.85,3,2.2,4.6,2.3s2.75-1.7,2.3-3.35a6.85,6.85,0,0,0-3.25-3.85c-3.15-2-8.5-4.1-11.8-5.85-1.15-.6-2.9-1.1-3.75-2,1.85-1.3,4-2.15,6-3.35,1.65-.95,3.25-1.8,5-2.7,1.9-1,8.4-4.4,7.85-7.1a1.82,1.82,0,0,0-2-1.55c-3.5,0-10.35,5-11.5,5.6Z" fill="gray"/><path d="M208.64,29.31a11.52,11.52,0,0,0-5.1,5.25,4.84,4.84,0,0,0-.35,1.95,2.9,2.9,0,0,0,2,3.05,2.59,2.59,0,0,0,2.1-.15c.7-.35.7-.65.8-1.4.15-1.1.8-2.55,2-2.8a3.09,3.09,0,0,1,3,1.2,7.47,7.47,0,0,0,3.25,2.3,9,9,0,0,0,3.3.55,10.73,10.73,0,0,0,6-1.8c2-1.45,4.2-4.8,3.55-7.45a3.59,3.59,0,0,0-2.35-2.5c-1-.15-2.75-.2-3,1.15-.1.65.4,1.1.25,1.8a4,4,0,0,1-.85,1.55,4.68,4.68,0,0,1-3.7,1.4c-3-.4-3.8-3.9-6.35-4.85a6.22,6.22,0,0,0-4.6.75Z" fill="gray"/><path d="M242.09,40.56a20.15,20.15,0,0,1-3.4,7.45,42.39,42.39,0,0,1-4.5,5.6,3.37,3.37,0,0,0-1.2,2.3c0,.9.6,1.65,2,1.85,4.25.6,7.85-6,9.85-9.1,3-4.6,3.4-8.4,3.7-13.25.3-4.7-1.1-9.35-2.65-13.7-1.35-3.85-5.65-8.85-9.85-9.2-1.8-.15-3.55,1.45-2.6,3.45.8,1.7,4.2,3.55,5.25,5.25a20,20,0,0,1,2.8,6.35,34.8,34.8,0,0,1,.6,13Z" fill="gray"/><path d="M278.23,11a4.25,4.25,0,0,1,0,6.25,4.25,4.25,0,0,1-6.25,0A4.25,4.25,0,0,1,272,11a4.25,4.25,0,0,1,6.25,0Zm-1,5.27a2.89,2.89,0,0,0,.78-2.14,2.93,2.93,0,1,0-5.86,0,2.89,2.89,0,0,0,.79,2.14,3.31,3.31,0,0,0,4.29,0Z" fill="gray"/><path d="M290.68,45a6.27,6.27,0,0,1,6.2,6.27,6.13,6.13,0,0,1-1.77,4.39,5.8,5.8,0,0,1-4.38,1.86,5.91,5.91,0,0,1-4.37-1.83,6.35,6.35,0,0,1,0-8.85A5.82,5.82,0,0,1,290.68,45Zm0,9.08a2.8,2.8,0,0,0,1.85-.75,2.37,2.37,0,0,0,.88-1.91,2.77,2.77,0,0,0-2.78-2.91,2.41,2.41,0,0,0-1.86.89,2.8,2.8,0,0,0-.78,1.85,2.92,2.92,0,0,0,.78,1.91,2.43,2.43,0,0,0,1.91.92Z" fill="gray"/></g></g></g></svg>