<svg xmlns="http://www.w3.org/2000/svg" viewBox="0 0 285.99 70.3"><g id="Layer_2" data-name="Layer 2"><g id="Layer_1-2" data-name="Layer 1"><g id="NoInternet_2" data-name="NoInternet 2"><path d="M152.2,23.82A11.32,11.32,0,0,0,140.87,12.5h-117A11.32,11.32,0,0,0,12.5,23.82V46.47A11.33,11.33,0,0,0,23.82,57.8H140.87A11.33,11.33,0,0,0,152.2,46.47V23.82Z" fill="#303030" stroke="#303030" stroke-linecap="round" stroke-linejoin="round" stroke-width="25" fill-rule="evenodd"/><path d="M19,29.76a20,20,0,0,1,3.35-7.45,36.4,36.4,0,0,1,4.55-5.6,3.37,3.37,0,0,0,1.2-2.3c0-.9-.6-1.65-2-1.85-4.25-.65-7.85,6-9.9,9.1-3,4.55-3.39,8.4-3.69,13.25s1.15,9.35,2.64,13.7c1.35,3.8,5.65,8.85,9.85,9.15,1.8.15,3.6-1.4,2.65-3.4-.85-1.7-4.25-3.55-5.3-5.25a21.5,21.5,0,0,1-2.8-6.4,32.31,32.31,0,0,1-.95-7.8,30.18,30.18,0,0,1,.4-5.15Z" fill="gray"/><path d="M52.39,33.41a13.22,13.22,0,0,0-2.4-.7,16.09,16.09,0,0,0-2.15-.15c-1,0-2.05,0-3.1.1H42.09c-2.9,0-5.75.05-8.5,1.25a3.54,3.54,0,0,0-2.1,1.9c-.4,1.25.95,2.45,1.65,2.95a3.22,3.22,0,0,0,2.35.3,36.89,36.89,0,0,1,4-.35c2.65-.15,5.2-.35,7.85-.7,1.4-.15,3.2.05,4.45-.75.6-.35,1.75-1.25,1.45-2.4-.2-.7-.45-1.25-.9-1.45Z" fill="gray"/><path d="M76.44,45.91c-1.3.05-2.65.05-4,.15s-2.65.2-4,.35-2.9.25-4.35.5c-2.15.35-4.85.5-6.4,2.25-.75.8-.45,1.6.3,2.3,1.15,1.15,2.15,1.2,3.75,1,2.15-.2,4.25-.25,6.45-.35,2.8-.15,5.65-.45,8.45-.7s5.4-.45,8-.65a34,34,0,0,0,5-.6,2.81,2.81,0,0,0,2.1-2.4A1.54,1.54,0,0,0,91,46.46a10,10,0,0,0-2.15-1.15,9.38,9.38,0,0,0-2.9-.05c-1.9.1-3.8.3-5.65.4-1.3.1-2.6.25-3.85.3Z" fill="gray"/><path d="M116.09,33.41a13.22,13.22,0,0,0-2.4-.7,16.09,16.09,0,0,0-2.15-.15c-1,0-2.05,0-3.1.1h-2.65c-2.9,0-5.75.05-8.5,1.25a3.54,3.54,0,0,0-2.1,1.9c-.4,1.25,1,2.45,1.65,2.95a3.22,3.22,0,0,0,2.35.3,36.89,36.89,0,0,1,4-.35c2.65-.15,5.2-.35,7.85-.7,1.4-.15,3.2.05,4.45-.75.6-.35,1.75-1.25,1.45-2.4-.2-.7-.45-1.25-.9-1.45Z" fill="gray"/><path d="M123.64,32.21c-.7.6-2,1.85-2.1,2.9a3.1,3.1,0,0,0,1.75,2.35c1.2.5,3-.1,4.2-.6a19.3,19.3,0,0,0,3.3-1.85c.65-.4,1.45-.8,1.6-1.6.45-2.15-1.1-2.85-3-2.85a11,11,0,0,0-5.7,1.65Zm7.7,10.55a2.67,2.67,0,0,0-3-1.75,4.5,4.5,0,0,0-2.85,2.3,20.25,20.25,0,0,0-1.25,3.45c-.4,1.25-.65,2.55-1,3.8a21.8,21.8,0,0,0-1.05,3.2c-.2,1.05-.1,2.9,1,3.4a2.54,2.54,0,0,0,3.3-1c.65-1.15,1.2-2.45,1.75-3.7.8-1.75,1.2-3.65,2-5.4.55-1.25,1.45-2.9,1.05-4.3Z" fill="gray"/><path d="M145.75,40.56a20.15,20.15,0,0,1-3.4,7.45,42.39,42.39,0,0,1-4.5,5.6,3.37,3.37,0,0,0-1.2,2.3c0,.9.6,1.65,2,1.85,4.25.6,7.85-6,9.84-9.1,3-4.6,3.4-8.4,3.7-13.25.3-4.7-1.1-9.35-2.65-13.7-1.35-3.85-5.64-8.85-9.84-9.2-1.8-.15-3.55,1.45-2.6,3.45.8,1.7,4.2,3.55,5.25,5.25a20,20,0,0,1,2.8,6.35,34.8,34.8,0,0,1,.6,13Z" fill="gray"/><path d="M179.59,26a6.4,6.4,0,1,0,6.4,6.4A6.44,6.44,0,0,0,179.59,26Z" fill="gray"/><path d="M229.59,26a6.4,6.4,0,1,0,6.4,6.4A6.44,6.44,0,0,0,229.59,26Z" fill="gray"/><path d="M279.59,26a6.4,6.4,0,1,0,6.4,6.4A6.44,6.44,0,0,0,279.59,26Z" fill="gray"/></g></g></g></svg>